HIERARCHY
ROOT Hips
{
	OFFSET -32.860001 56.121803 44.745396
	CHANNELS 6 Xposition Yposition Zposition Zrotation Xrotation Yrotation
	JOINT Chest
	{
		OFFSET -0.637402 0.831600 5.390099
		CHANNELS 6 Xposition Yposition Zposition Zrotation Xrotation Yrotation
		JOINT Chest2
		{
			OFFSET 0.000000 0.000000 4.429901
			CHANNELS 6 Xposition Yposition Zposition Zrotation Xrotation Yrotation
			JOINT Neck
			{
				OFFSET 0.000000 0.000000 10.301395
				CHANNELS 6 Xposition Yposition Zposition Zrotation Xrotation Yrotation
				JOINT Head
				{
					OFFSET 0.000000 0.000000 2.173897
					CHANNELS 6 Xposition Yposition Zposition Zrotation Xrotation Yrotation
					End Site
					{
						OFFSET 0.000000 0.000000 8.298004
					}
				}
			}
			JOINT LeftCollar
			{
				OFFSET 2.142401 -0.572701 5.717800
				CHANNELS 6 Xposition Yposition Zposition Zrotation Xrotation Yrotation
				JOINT LeftShoulder
				{
					OFFSET 5.674000 0.000000 0.000000
					CHANNELS 6 Xposition Yposition Zposition Zrotation Xrotation Yrotation
					JOINT LeftElbow
					{
						OFFSET 0.000000 0.000000 -12.238701
						CHANNELS 6 Xposition Yposition Zposition Zrotation Xrotation Yrotation
						JOINT LeftWrist
						{
							OFFSET 0.000000 0.000000 -10.253700
							CHANNELS 6 Xposition Yposition Zposition Zrotation Xrotation Yrotation
							End Site
							{
								OFFSET 0.000000 0.000000 -2.173901
							}
						}
					}
				}
			}
			JOINT RightCollar
			{
				OFFSET -2.882599 -1.580101 6.695801
				CHANNELS 6 Xposition Yposition Zposition Zrotation Xrotation Yrotation
				JOINT RightShoulder
				{
					OFFSET -4.235600 0.000000 0.000000
					CHANNELS 6 Xposition Yposition Zposition Zrotation Xrotation Yrotation
					JOINT RightElbow
					{
						OFFSET 0.000000 0.000000 -10.709900
						CHANNELS 6 Xposition Yposition Zposition Zrotation Xrotation Yrotation
						JOINT RightWrist
						{
							OFFSET 0.000000 0.000000 -11.716801
							CHANNELS 6 Xposition Yposition Zposition Zrotation Xrotation Yrotation
							End Site
							{
								OFFSET 0.000000 0.000000 -2.173901
							}
						}
					}
				}
			}
		}
	}
	JOINT LeftHip
	{
		OFFSET 2.279499 0.210400 -2.475502
		CHANNELS 6 Xposition Yposition Zposition Zrotation Xrotation Yrotation
		JOINT LeftKnee
		{
			OFFSET 0.000000 -0.000004 -20.742800
			CHANNELS 6 Xposition Yposition Zposition Zrotation Xrotation Yrotation
			JOINT LeftAnkle
			{
				OFFSET 0.000000 0.000000 -16.666000
				CHANNELS 6 Xposition Yposition Zposition Zrotation Xrotation Yrotation
				End Site
				{
					OFFSET 0.000000 -8.310898 0.000000
				}
			}
		}
	}
	JOINT RightHip
	{
		OFFSET -1.961899 0.232300 -2.727402
		CHANNELS 6 Xposition Yposition Zposition Zrotation Xrotation Yrotation
		JOINT RightKnee
		{
			OFFSET 0.000000 -0.000004 -20.526800
			CHANNELS 6 Xposition Yposition Zposition Zrotation Xrotation Yrotation
			JOINT RightAnkle
			{
				OFFSET 0.000000 0.000000 -16.867300
				CHANNELS 6 Xposition Yposition Zposition Zrotation Xrotation Yrotation
				End Site
				{
					OFFSET 0.000000 -7.186401 0.000000
				}
			}
		}
	}
}
MOTION
Frames: 5
Frame Time: 0.041667
78.247116 67.991501 22.730282 -61.915849 20.988772 -8.452082 -0.637411 0.831596 5.390098 -10.940124 40.973571 11.818791 -0.000000 -0.000009 4.429900 2.420033 -8.741954 -0.613103 -0.000001 -0.000005 10.301390 362.934041 34.361237 -2.148683 -0.000001 0.000006 2.173889 -359.825813 7.119080 1.483843 2.142402 -0.572703 5.717793 -14.961413 12.333537 -5.907816 5.674004 0.000005 -0.000003 155.352680 172.992122 87.051656 -0.000005 0.000000 -12.238687 -116.385877 -164.434824 -143.126355 0.000007 0.000009 -10.253698 -124.568608 28.199712 -53.376535 -2.882601 -1.580099 6.695792 4.725527 13.083834 -0.108206 -4.235599 0.000004 0.000001 31.228629 -2.356145 103.750143 0.000007 0.000002 -10.709906 -34.581111 -27.269441 -33.800055 0.000005 0.000004 -11.716801 94.740598 20.243612 58.491240 2.279497 0.210392 -2.475507 138.202239 -49.327940 143.239476 -0.000001 -0.000018 -20.742796 -127.382741 -10.572183 109.271204 -0.000014 0.000009 -16.665998 64.223900 16.388269 41.908050 -1.961898 0.232298 -2.727403 -124.047164 -25.795955 -98.286081 0.000004 -0.000001 -20.526808 181.621492 7.053035 -150.275254 0.000003 -0.000008 -16.867302 -54.731426 13.328085 -29.492750
78.250122 67.993599 22.726889 -61.553801 20.800803 -8.600621 -0.637391 0.831614 5.390099 -10.804768 41.069060 11.734856 0.000007 -0.000002 4.429897 2.353492 -8.791887 -0.611425 0.000004 0.000002 10.301390 362.727387 34.400384 -2.005906 0.000003 -0.000005 2.173901 -359.946106 7.234499 1.373839 2.142397 -0.572699 5.717796 -15.047598 12.435348 -5.696408 5.674001 0.000003 0.000005 155.354415 172.937139 87.016173 -0.000004 -0.000004 -12.238695 -116.144430 -164.602573 -143.023369 -0.000006 -0.000005 -10.253702 -125.024140 28.057442 -53.485521 -2.882603 -1.580097 6.695799 4.474547 12.944194 0.148858 -4.235608 -0.000001 -0.000004 31.387055 -2.544696 103.379243 0.000000 0.000010 -10.709908 -34.465210 -27.188196 -33.933186 -0.000004 0.000012 -11.716795 95.124919 20.252401 58.514770 2.279504 0.210416 -2.475497 137.752949 -49.395477 142.860278 -0.000009 -0.000008 -20.742809 -127.462723 -10.371723 109.177521 -0.000008 0.000005 -16.666000 63.534413 16.059563 41.426013 -1.961887 0.232313 -2.727395 -124.026987 -26.050463 -98.138036 0.000004 -0.000009 -20.526796 181.603324 6.982638 -150.275350 0.000000 0.000010 -16.867287 -54.805028 13.310072 -29.575539
78.253014 67.990303 22.718086 -61.207203 20.597151 -8.748144 -0.637400 0.831590 5.390099 -10.751479 41.147679 11.719070 0.000003 -0.000007 4.429902 2.292540 -8.808568 -0.609328 0.000003 -0.000000 10.301394 362.642173 34.451665 -1.960913 -0.000001 0.000003 2.173892 -360.107408 7.327951 1.297626 2.142399 -0.572692 5.717799 -15.066395 12.461199 -5.592058 5.674002 0.000004 0.000005 155.365685 172.834167 87.047708 0.000005 -0.000002 -12.238701 -115.661139 -164.914617 -142.720955 -0.000017 -0.000004 -10.253696 -125.925001 27.994155 -53.501941 -2.882599 -1.580090 6.695796 4.296729 12.799518 0.410155 -4.235608 -0.000001 0.000003 31.531227 -2.720335 102.990093 0.000002 0.000004 -10.709900 -34.379976 -27.110763 -34.035126 0.000003 0.000008 -11.716801 95.307715 20.431136 58.372204 2.279511 0.210390 -2.475500 137.252037 -49.410135 142.431793 -0.000006 -0.000012 -20.742813 -127.540368 -10.171985 109.104356 -0.000001 -0.000004 -16.666000 62.981290 15.822429 41.033420 -1.961899 0.232290 -2.727394 -123.997727 -26.364706 -97.969781 0.000003 -0.000008 -20.526804 181.559870 6.934875 -150.294174 0.000008 -0.000006 -16.867300 -54.907437 13.283845 -29.617288
78.255913 67.982193 22.705593 -60.868385 20.385570 -8.909423 -0.637400 0.831603 5.390099 -10.766157 41.201474 11.750666 -0.000001 0.000001 4.429912 2.246496 -8.804895 -0.607018 0.000007 0.000006 10.301412 362.609634 34.513588 -1.938192 0.000003 0.000010 2.173899 -360.297998 7.416888 1.222479 2.142402 -0.572694 5.717824 -15.089353 12.469668 -5.514182 5.673999 -0.000001 0.000006 155.433481 172.714379 87.091599 -0.000008 0.000000 -12.238692 -115.071899 -165.299443 -142.326075 0.000000 0.000012 -10.253702 -127.007723 27.954219 -53.474695 -2.882595 -1.580093 6.695809 4.183293 12.693434 0.671123 -4.235604 -0.000003 0.000011 31.619415 -2.847478 102.614658 -0.000002 0.000002 -10.709896 -34.382926 -27.046210 -34.122040 0.000003 0.000002 -11.716805 95.625654 20.411735 58.412071 2.279495 0.210402 -2.475498 136.814030 -49.452612 142.071637 -0.000005 -0.000008 -20.742815 -127.500193 -9.922143 109.058867 0.000005 0.000010 -16.665997 62.529740 15.670667 40.709669 -1.961896 0.232303 -2.727399 -123.975242 -26.645466 -97.806403 0.000006 -0.000011 -20.526806 181.558244 6.876477 -150.324568 0.000004 0.000004 -16.867296 -55.059852 13.246495 -29.653785
78.258324 67.971191 22.689487 -60.532183 20.158873 -9.065977 -0.637405 0.831599 5.390110 -10.822260 41.253434 11.806012 -0.000009 0.000004 4.429897 2.211250 -8.796593 -0.604428 -0.000005 -0.000008 10.301385 362.591220 34.584386 -1.930652 -0.000009 -0.000005 2.173898 -360.511892 7.509183 1.162342 2.142391 -0.572704 5.717807 -15.111443 12.487269 -5.428854 5.674002 0.000001 0.000004 155.535073 172.587515 87.100676 -0.000004 -0.000002 -12.238691 -114.220140 -165.884272 -141.789359 -0.000009 0.000010 -10.253702 -128.563558 27.921602 -53.394553 -2.882599 -1.580104 6.695791 4.120884 12.644769 0.854534 -4.235604 0.000007 -0.000013 31.676085 -2.888662 102.307839 0.000006 0.000002 -10.709900 -34.473221 -26.984163 -34.160214 0.000003 -0.000007 -11.716803 95.975885 20.400846 58.432603 2.279500 0.210412 -2.475502 136.369617 -49.475923 141.709609 0.000006 -0.000008 -20.742802 -127.410636 -9.732612 109.038403 0.000003 -0.000000 -16.665997 62.208571 15.588455 40.490249 -1.961888 0.232302 -2.727390 -123.951555 -26.954059 -97.631188 0.000006 -0.000007 -20.526804 181.549078 6.836700 -150.367639 0.000001 0.000003 -16.867292 -55.231201 13.205734 -29.695545
